<svg width="29" height="29" viewBox="0 0 29 29" fill="none" xmlns="http://www.w3.org/2000/svg">
<g clip-path="url(#clip0_1_4984)">
<path d="M20.5417 4.22911C20.5417 4.06887 20.478 3.9152 20.3647 3.8019C20.2514 3.6886 20.0977 3.62494 19.9375 3.62494H16.9167C15.3955 3.54917 13.9062 4.07854 12.7742 5.09739C11.6421 6.11625 10.9593 7.54175 10.875 9.06244V12.3249H7.85417C7.69393 12.3249 7.54026 12.3886 7.42696 12.5019C7.31365 12.6152 7.25 12.7689 7.25 12.9291V16.0708C7.25 16.231 7.31365 16.3847 7.42696 16.498C7.54026 16.6113 7.69393 16.6749 7.85417 16.6749H10.875V24.7708C10.875 24.931 10.9387 25.0847 11.052 25.198C11.1653 25.3113 11.3189 25.3749 11.4792 25.3749H15.1042C15.2644 25.3749 15.4181 25.3113 15.5314 25.198C15.6447 25.0847 15.7083 24.931 15.7083 24.7708V16.6749H18.8742C19.0085 16.6769 19.1397 16.634 19.2469 16.553C19.3541 16.472 19.4313 16.3576 19.4662 16.2279L20.3362 13.0862C20.3603 12.9969 20.3635 12.9033 20.3457 12.8126C20.3279 12.7219 20.2895 12.6365 20.2334 12.5629C20.1774 12.4894 20.1053 12.4297 20.0225 12.3885C19.9398 12.3472 19.8487 12.3255 19.7562 12.3249H15.7083V9.06244C15.7384 8.76335 15.8788 8.4862 16.1023 8.28511C16.3257 8.08402 16.6161 7.97344 16.9167 7.97494H19.9375C20.0977 7.97494 20.2514 7.91129 20.3647 7.79799C20.478 7.68468 20.5417 7.53101 20.5417 7.37078V4.22911Z" fill="black"/>
</g>
<defs>
<clipPath id="clip0_1_4984">
<rect width="29" height="29" fill="white"/>
</clipPath>
</defs>
</svg>
