<svg width="26" height="26" viewBox="0 0 26 26" fill="none" xmlns="http://www.w3.org/2000/svg">
<g id="instagram">
<path id="Vector" d="M18.7843 5.91496C18.5272 5.91496 18.2759 5.9912 18.0621 6.13405C17.8483 6.2769 17.6817 6.47993 17.5833 6.71747C17.4849 6.95502 17.4592 7.2164 17.5093 7.46858C17.5595 7.72075 17.6833 7.95239 17.8651 8.1342C18.0469 8.31601 18.2786 8.43982 18.5307 8.48998C18.7829 8.54014 19.0443 8.5144 19.2818 8.416C19.5194 8.31761 19.7224 8.15098 19.8653 7.9372C20.0081 7.72342 20.0844 7.47207 20.0844 7.21496C20.0844 6.87018 19.9474 6.53952 19.7036 6.29572C19.4598 6.05192 19.1291 5.91496 18.7843 5.91496ZM23.7677 8.53663C23.7466 7.63778 23.5783 6.74848 23.2694 5.90413C22.9939 5.18169 22.5652 4.52751 22.0127 3.98663C21.4762 3.43134 20.8205 3.00532 20.0952 2.74079C19.2531 2.42247 18.3628 2.25027 17.4627 2.23163C16.3144 2.16663 15.946 2.16663 12.9993 2.16663C10.0527 2.16663 9.68435 2.16663 8.53602 2.23163C7.63593 2.25027 6.74564 2.42247 5.90352 2.74079C5.1795 3.008 4.52436 3.43365 3.98602 3.98663C3.43073 4.52307 3.00471 5.17877 2.74018 5.90413C2.42186 6.74625 2.24966 7.63654 2.23102 8.53663C2.16602 9.68496 2.16602 10.0533 2.16602 13C2.16602 15.9466 2.16602 16.315 2.23102 17.4633C2.24966 18.3634 2.42186 19.2537 2.74018 20.0958C3.00471 20.8211 3.43073 21.4769 3.98602 22.0133C4.52436 22.5663 5.1795 22.9919 5.90352 23.2591C6.74564 23.5775 7.63593 23.7496 8.53602 23.7683C9.68435 23.8333 10.0527 23.8333 12.9993 23.8333C15.946 23.8333 16.3144 23.8333 17.4627 23.7683C18.3628 23.7496 19.2531 23.5775 20.0952 23.2591C20.8205 22.9946 21.4762 22.5686 22.0127 22.0133C22.5676 21.4744 22.9967 20.8197 23.2694 20.0958C23.5783 19.2514 23.7466 18.3621 23.7677 17.4633C23.7677 16.315 23.8327 15.9466 23.8327 13C23.8327 10.0533 23.8327 9.68496 23.7677 8.53663ZM21.8177 17.3333C21.8098 18.021 21.6852 18.7023 21.4493 19.3483C21.2764 19.8198 20.9986 20.2458 20.6368 20.5941C20.2855 20.9522 19.8603 21.2294 19.391 21.4066C18.745 21.6425 18.0637 21.7671 17.376 21.775C16.2927 21.8291 15.8918 21.84 13.0427 21.84C10.1935 21.84 9.79268 21.84 8.70935 21.775C7.99531 21.7883 7.28433 21.6784 6.60768 21.45C6.15895 21.2637 5.75332 20.9871 5.41602 20.6375C5.05644 20.2894 4.7821 19.8631 4.61435 19.3916C4.34986 18.7364 4.20316 18.0396 4.18102 17.3333C4.18102 16.25 4.11602 15.8491 4.11602 13C4.11602 10.1508 4.11602 9.74996 4.18102 8.66663C4.18587 7.9636 4.31421 7.2669 4.56018 6.60829C4.7509 6.15103 5.04364 5.74342 5.41602 5.41663C5.74515 5.04414 6.15191 4.74831 6.60768 4.54996C7.26803 4.31167 7.96401 4.18713 8.66602 4.18163C9.74935 4.18163 10.1502 4.11663 12.9993 4.11663C15.8485 4.11663 16.2493 4.11663 17.3327 4.18163C18.0204 4.18951 18.7017 4.31406 19.3477 4.54996C19.84 4.73267 20.2818 5.02971 20.6368 5.41663C20.9919 5.7494 21.2693 6.15625 21.4493 6.60829C21.6901 7.26797 21.8147 7.96439 21.8177 8.66663C21.8718 9.74996 21.8827 10.1508 21.8827 13C21.8827 15.8491 21.8718 16.25 21.8177 17.3333ZM12.9993 7.44246C11.9006 7.4446 10.8272 7.77236 9.91473 8.38433C9.00222 8.9963 8.29159 9.86501 7.87262 10.8807C7.45365 11.8964 7.34513 13.0135 7.56079 14.0908C7.77645 15.1681 8.3066 16.1574 9.08426 16.9335C9.86192 17.7097 10.8522 18.2379 11.9299 18.4515C13.0077 18.665 14.1246 18.5543 15.1394 18.1334C16.1543 17.7124 17.0216 17.0001 17.6318 16.0864C18.242 15.1727 18.5677 14.0987 18.5677 13C18.5691 12.2688 18.426 11.5446 18.1465 10.869C17.8671 10.1934 17.4568 9.57967 16.9393 9.06318C16.4218 8.54669 15.8073 8.13761 15.1311 7.85947C14.455 7.58132 13.7305 7.4396 12.9993 7.44246ZM12.9993 16.6075C12.2859 16.6075 11.5884 16.3959 10.9951 15.9995C10.4019 15.6031 9.9395 15.0397 9.66645 14.3805C9.39341 13.7213 9.32197 12.996 9.46117 12.2962C9.60036 11.5964 9.94394 10.9536 10.4485 10.4491C10.953 9.94455 11.5958 9.60097 12.2956 9.46178C12.9953 9.32258 13.7207 9.39402 14.3799 9.66706C15.0391 9.94011 15.6025 10.4025 15.9989 10.9957C16.3953 11.589 16.6068 12.2865 16.6068 13C16.6068 13.4737 16.5135 13.9428 16.3322 14.3805C16.151 14.8182 15.8852 15.2159 15.5502 15.5508C15.2153 15.8858 14.8176 16.1516 14.3799 16.3329C13.9422 16.5141 13.4731 16.6075 12.9993 16.6075Z" fill="black"/>
</g>
</svg>
